<svg width="21" height="21" viewBox="0 0 21 21" fill="none" xmlns="http://www.w3.org/2000/svg">
<path d="M19.0602 0H1.5217C0.680633 0 0 0.657578 0 1.46504V19.0021C0 19.812 0.680633 20.4671 1.5217 20.4671H19.0602C19.9012 20.4671 20.5818 19.8095 20.5818 19.0021V1.46504C20.5794 0.657578 19.8988 0 19.0602 0ZM3.17466 17.1285V7.91269H6.25453V17.1285H3.17466ZM4.71581 6.65555H4.69637C3.66326 6.65555 2.99478 5.94721 2.99478 5.0648C2.99478 4.18239 3.68272 3.47163 4.73769 3.47163C5.79267 3.47163 6.43927 4.16063 6.45872 5.0648C6.45872 5.94963 5.79024 6.65555 4.71581 6.65555ZM17.3586 17.1285H14.2787V12.199C14.2787 10.9612 13.8338 10.1151 12.7181 10.1151C11.8673 10.1151 11.3593 10.6856 11.1381 11.2344C11.0579 11.4302 11.036 11.7058 11.036 11.9815V17.1261H7.95611C7.95611 17.1261 7.99743 8.77576 7.95611 7.91269H11.036V9.21817C11.4444 8.5896 12.1785 7.69753 13.812 7.69753C15.8368 7.69753 17.3561 9.01509 17.3561 11.8436V17.1261L17.3586 17.1285Z" fill="white"/>
</svg>
