<svg width="360" height="301" viewBox="0 0 360 301" fill="none" xmlns="http://www.w3.org/2000/svg">
<path d="M2.36188 19.5759C1.41172 18.9497 0.728792 18.134 0.327943 17.1582C0.224019 16.9106 0.224019 16.6484 0.327943 16.4154C0.431867 16.1678 0.624868 15.993 0.877254 15.8911C1.12964 15.7891 1.39687 15.7891 1.63441 15.8911C1.8868 15.993 2.06496 16.1824 2.16888 16.43C2.42127 17.0562 2.85181 17.5806 3.4605 17.9738C4.0692 18.3671 4.73728 18.571 5.4499 18.571C6.16252 18.571 6.99391 18.3088 7.57292 17.799C8.16677 17.2747 8.46369 16.6484 8.46369 15.9348C8.46369 15.2211 8.21131 14.5802 7.70653 14.2016C7.29084 13.8957 6.4446 13.5753 5.18267 13.2403C3.74258 12.847 2.70334 12.4392 2.0798 11.9877C0.996024 11.2303 0.461559 10.138 0.461559 8.71064C0.461559 7.28329 0.951486 6.36571 1.91649 5.47726C2.89635 4.57424 4.0692 4.1373 5.4499 4.1373C6.83061 4.1373 7.6323 4.45773 8.50823 5.11314C9.39901 5.76856 9.99286 6.62788 10.3195 7.72023C10.3937 7.9824 10.364 8.23 10.2452 8.46304C10.1116 8.69607 9.91863 8.85628 9.65139 8.92911C9.39901 9.00193 9.14662 8.9728 8.89424 8.85628C8.6567 8.7252 8.49339 8.53586 8.41915 8.27369C8.22615 7.60371 7.855 7.06482 7.32053 6.67157C6.78607 6.27832 6.16252 6.08898 5.4499 6.08898C4.73728 6.08898 3.92074 6.35115 3.32689 6.86091C2.73304 7.38524 2.43611 8.01153 2.43611 8.7252C2.43611 9.43887 2.6885 10.0506 3.19327 10.4147C3.59412 10.706 4.42551 11.0264 5.68744 11.376C7.14238 11.7692 8.19646 12.1916 8.82 12.6431C9.90378 13.4151 10.4382 14.522 10.4382 15.9639C10.4382 17.4058 9.94832 18.3088 8.98331 19.1973C8.00346 20.1003 6.83061 20.5372 5.4499 20.5372C4.0692 20.5372 3.32689 20.2314 2.37673 19.6051L2.36188 19.5759Z" fill="white"/>
<path d="M17.6262 8.2599C17.9083 8.2599 18.1607 8.36185 18.3537 8.56576C18.5467 8.7551 18.6506 9.0027 18.6506 9.27943C18.6506 9.55616 18.5467 9.80376 18.3537 9.9931C18.1607 10.197 17.9083 10.299 17.6262 10.299H16.008V19.5039C16.008 19.7806 15.9041 20.0282 15.7111 20.2176C15.5181 20.4069 15.2657 20.5089 14.9836 20.5089C14.7015 20.5089 14.4491 20.4069 14.2561 20.2176C14.0483 20.0282 13.9444 19.7806 13.9444 19.5039V10.299H12.341C12.0589 10.299 11.8065 10.197 11.5986 9.9931C11.4056 9.80376 11.3017 9.55616 11.3017 9.27943C11.3017 9.0027 11.4056 8.7551 11.5986 8.56576C11.8065 8.36185 12.0589 8.2599 12.341 8.2599H13.9444V5.12848C13.9444 4.85175 14.0483 4.60415 14.2561 4.4148C14.4491 4.2109 14.7015 4.10894 14.9836 4.10894C15.2657 4.10894 15.5181 4.2109 15.7111 4.4148C15.9041 4.60415 16.008 4.85175 16.008 5.12848V8.2599H17.6262Z" fill="white"/>
<path d="M29.4265 8.25954C29.7085 8.25954 29.9609 8.3615 30.1539 8.5654C30.3469 8.75475 30.4508 9.00235 30.4508 9.27908V19.5035C30.4508 19.7803 30.3469 20.0279 30.1539 20.2172C29.9609 20.4066 29.7085 20.5085 29.4265 20.5085C29.1444 20.5085 28.892 20.4066 28.699 20.2172C28.4911 20.0279 28.3872 19.7803 28.3872 19.5035V18.9646C27.2292 19.9987 25.8782 20.5085 24.3193 20.5085C22.7605 20.5085 21.1719 19.9114 19.9842 18.717C18.7817 17.5227 18.173 16.0808 18.173 14.3913C18.173 12.7018 18.7817 11.2453 19.9842 10.051C21.1868 8.84213 22.6269 8.24498 24.3193 8.24498C26.0118 8.24498 27.2292 8.75475 28.3872 9.78884V9.26451C28.3872 8.98778 28.4911 8.74018 28.699 8.55084C28.892 8.34693 29.1444 8.24498 29.4265 8.24498V8.25954ZM24.3193 18.484C25.4477 18.484 26.3978 18.0908 27.1995 17.2897C27.9864 16.4886 28.3872 15.5274 28.3872 14.4059C28.3872 13.2844 27.9864 12.3085 27.1995 11.5075C26.3978 10.7064 25.4477 10.3132 24.3193 10.3132C23.191 10.3132 22.2409 10.7064 21.4392 11.5075C20.6375 12.3085 20.2366 13.2844 20.2366 14.4059C20.2366 15.5274 20.6375 16.4886 21.4392 17.2897C22.2409 18.0908 23.191 18.484 24.3193 18.484Z" fill="white"/>
<path d="M38.3774 10.2981C37.249 10.2981 36.2989 10.6914 35.4972 11.4924C34.6955 12.2935 34.2946 13.2693 34.2946 14.3908C34.2946 15.5123 34.6955 16.4736 35.4972 17.2746C36.2989 18.0757 37.249 18.469 38.3774 18.469C39.5057 18.469 40.8418 17.9009 41.6732 16.7794C41.8365 16.561 42.0592 16.4153 42.3562 16.3716C42.4155 16.3571 42.4898 16.3425 42.5492 16.3425C42.757 16.3425 42.95 16.4008 43.1282 16.5318C43.3657 16.6921 43.4993 16.9105 43.5439 17.1873C43.5587 17.2455 43.5735 17.3183 43.5735 17.3766C43.5735 17.5805 43.5142 17.7698 43.3805 17.9446C42.1483 19.6341 40.4855 20.4789 38.407 20.4789C36.3286 20.4789 35.2596 19.8817 34.0719 18.6874C32.8694 17.4931 32.2607 16.0512 32.2607 14.3617C32.2607 12.6722 32.8694 11.2157 34.0719 10.0214C35.2745 8.81252 36.7146 8.21537 38.407 8.21537C40.0995 8.21537 42.1483 9.06012 43.3805 10.7496C43.5142 10.9244 43.5735 11.1283 43.5735 11.3322C43.5735 11.5361 43.5735 11.4487 43.5439 11.5216C43.4993 11.7983 43.3657 12.0168 43.1282 12.1915C42.95 12.3226 42.757 12.3809 42.5492 12.3809C42.3413 12.3809 42.4304 12.3809 42.3562 12.3663C42.0741 12.3226 41.8365 12.1915 41.6732 11.9585C40.8567 10.837 39.7581 10.2836 38.3774 10.2836V10.2981Z" fill="white"/>
<path d="M53.9244 18.7465C54.1323 18.9359 54.2362 19.1835 54.251 19.4456C54.2659 19.7224 54.1768 19.97 53.9689 20.1884C53.7759 20.4069 53.5087 20.5089 53.2118 20.5089C52.9149 20.5089 52.707 20.4215 52.514 20.2321L47.3475 15.6005V19.4748C47.3475 19.7515 47.2436 19.9991 47.0506 20.203C46.8427 20.3923 46.6052 20.4943 46.3231 20.4943C46.041 20.4943 45.7887 20.3923 45.5808 20.203C45.3878 19.9991 45.2839 19.7515 45.2839 19.4748V5.12848C45.2839 4.85175 45.3878 4.60415 45.5808 4.40024C45.7887 4.2109 46.041 4.10894 46.3231 4.10894C46.6052 4.10894 46.8427 4.2109 47.0506 4.40024C47.2436 4.60415 47.3475 4.85175 47.3475 5.12848V12.7604L52.2171 8.5075C52.4249 8.31816 52.6773 8.23077 52.9742 8.24533C53.2563 8.2599 53.4939 8.37642 53.6869 8.58032C53.8799 8.78423 53.9689 9.03183 53.9541 9.32313C53.9393 9.59986 53.8205 9.83289 53.6126 10.0222L48.847 14.1878L53.9244 18.7465Z" fill="white"/>
<path d="M69.5705 11.842C69.8526 11.842 70.105 11.9439 70.3128 12.1333C70.5058 12.3372 70.6098 12.5848 70.6098 12.8615V15.5851C70.6098 17.1872 69.7042 18.4689 67.9078 19.4156C66.5122 20.1439 64.9237 20.508 63.1718 20.508C61.4199 20.508 58.9703 19.7069 57.3669 18.1048C55.7635 16.5027 54.947 14.5801 54.947 12.308C54.947 10.0359 55.7487 8.11338 57.3669 6.51126C58.9703 4.90913 60.9003 4.09351 63.1718 4.09351C65.4433 4.09351 66.1559 4.50132 67.4624 5.30238C68.7688 6.10345 69.7784 7.1958 70.491 8.57945C70.5652 8.7251 70.5949 8.88531 70.5949 9.03096C70.5949 9.17661 70.5801 9.24943 70.5355 9.35139C70.4465 9.61355 70.2683 9.80289 70.0159 9.93398C69.8675 10.0068 69.719 10.0359 69.5557 10.0359C69.3924 10.0359 69.333 10.0214 69.2291 9.97767C68.9618 9.89028 68.754 9.7155 68.6352 9.4679C68.1008 8.43381 67.3436 7.61818 66.3637 7.00646C65.3839 6.4093 64.3298 6.11801 63.1569 6.11801C61.4645 6.11801 60.0095 6.71516 58.8218 7.92404C57.6193 9.13291 57.0106 10.5894 57.0106 12.2935C57.0106 13.9975 57.6193 15.4395 58.8218 16.6483C60.0244 17.8572 61.4645 18.4544 63.1569 18.4544C64.8494 18.4544 65.6066 18.2068 66.6755 17.7116C67.9078 17.1435 68.5165 16.4299 68.5165 15.556V13.8373H63.5578C63.2757 13.8373 63.0233 13.7354 62.8303 13.546C62.6373 13.3421 62.5334 13.1091 62.5334 12.8324C62.5334 12.5556 62.6373 12.308 62.8303 12.1041C63.0233 11.9148 63.2757 11.8128 63.5578 11.8128H69.5557L69.5705 11.842Z" fill="white"/>
<path d="M73.4928 18.7166C72.9138 18.1486 72.4684 17.5077 72.1567 16.7795C71.83 16.0221 71.6519 15.2211 71.6519 14.4054C71.6519 12.7159 72.2606 11.2594 73.4928 10.0651C74.0718 9.49711 74.7399 9.06017 75.4971 8.75431C76.2691 8.43388 77.0856 8.25911 77.9467 8.25911C79.6689 8.25911 81.1535 8.85626 82.3857 10.0651C82.9647 10.6332 83.4101 11.2886 83.7219 12.0168C84.0485 12.7742 84.2267 13.5752 84.2267 14.4054C84.2267 15.2356 84.1227 14.9298 83.9297 15.1191C83.7219 15.323 83.4695 15.425 83.1874 15.425H73.864C74.1015 16.3134 74.5914 17.0417 75.3486 17.6097C76.1058 18.1923 76.9817 18.4836 77.9467 18.4836C79.4759 18.4836 80.6636 18.0175 81.495 17.0999C81.6731 16.896 81.9107 16.7795 82.2076 16.7649C82.4897 16.7649 82.742 16.8377 82.9647 17.0125C83.1726 17.2019 83.2914 17.4349 83.3062 17.7116C83.3211 17.9884 83.232 18.236 83.039 18.4399C81.7919 19.809 80.0994 20.5081 77.9467 20.5081C75.794 20.5081 74.7251 19.9109 73.4928 18.7166ZM82.0294 13.3859C81.7919 12.4829 81.302 11.7546 80.5597 11.1721C79.7876 10.5895 78.9266 10.2982 77.9616 10.2982C76.9965 10.2982 76.1206 10.5895 75.3486 11.1721C74.6063 11.7546 74.1164 12.4975 73.8788 13.3859H82.0443H82.0294Z" fill="white"/>
<path d="M91.6317 8.2308C93.2054 8.2308 94.5564 8.82796 95.6847 10.0368C96.813 11.2311 97.3623 12.6731 97.3623 14.3771V19.5185C97.3623 19.7952 97.2584 20.0283 97.0506 20.2322C96.8576 20.4215 96.6052 20.5235 96.3231 20.5235C96.041 20.5235 95.7886 20.4215 95.5956 20.2322C95.4026 20.0283 95.2987 19.7952 95.2987 19.5185V14.3771C95.2987 13.2411 94.9424 12.2798 94.2298 11.4787C93.5023 10.6777 92.6412 10.2844 91.6317 10.2844C90.6221 10.2844 89.7462 10.6777 89.0336 11.4787C88.321 12.2798 87.9647 13.2556 87.9647 14.3771V19.4894C87.9647 19.7661 87.8607 20.0137 87.6677 20.203C87.4599 20.3924 87.2224 20.4943 86.9403 20.4943C86.6582 20.4943 86.4058 20.3924 86.198 20.203C86.005 20.0137 85.901 19.7661 85.901 19.4894V9.25033C85.901 8.9736 86.005 8.726 86.198 8.53666C86.4058 8.33275 86.6582 8.2308 86.9403 8.2308C87.2224 8.2308 87.4599 8.33275 87.6677 8.53666C87.8607 8.726 87.9647 8.9736 87.9647 9.25033V9.65815C89.0336 8.71144 90.251 8.2308 91.6465 8.2308H91.6317Z" fill="white"/>
<path fill-rule="evenodd" clip-rule="evenodd" d="M104.681 5.65113C102.692 7.6028 101.816 10.2682 102.053 12.8316C102.246 14.9143 103.167 16.8514 104.681 18.337L106.849 20.4635C107.279 20.8859 107.977 20.8859 108.408 20.4635L114.094 14.8852C114.183 14.7978 114.257 14.7104 114.346 14.623C115.667 13.0646 113.307 11.0547 111.852 12.482L107.635 16.6184L107.042 16.0358C104.8 13.8365 104.785 10.1808 107.042 7.96692L112.327 2.78187C112.98 2.14102 112.98 1.10692 112.327 0.480637C111.674 -0.160212 110.62 -0.160212 109.981 0.480637L104.696 5.66569L104.681 5.65113ZM115.266 16.0212L109.966 21.2209C109.313 21.8617 109.313 22.8958 109.966 23.5221C110.62 24.1629 111.674 24.1629 112.312 23.5221L117.612 18.3225C119.602 16.3708 120.463 13.72 120.225 11.142C120.032 9.07384 119.126 7.13673 117.597 5.63656L115.43 3.51011C114.999 3.08773 114.301 3.08773 113.871 3.51011L108.185 9.08841C108.096 9.1758 108.021 9.26319 107.932 9.35057C106.611 10.909 108.972 12.9189 110.427 11.4916L114.643 7.3552L115.237 7.93779C117.479 10.1371 117.493 13.7928 115.237 16.0067L115.266 16.0212Z" fill="url(#paint0_linear_7521_744)"/>
<path d="M1.18045 45.002V34.7809H4.4195C5.1201 34.7809 5.73912 34.9153 6.27656 35.184C6.814 35.4528 7.23148 35.827 7.52899 36.3069C7.82651 36.7868 7.97526 37.3578 7.97526 38.02C7.97526 38.6726 7.82651 39.2388 7.52899 39.7187C7.23148 40.1986 6.814 40.5729 6.27656 40.8416C5.73912 41.1007 5.1201 41.2303 4.4195 41.2303H2.96553V45.002H1.18045ZM2.96553 39.6035H4.23236C4.87537 39.6035 5.35043 39.4692 5.65754 39.2005C5.97425 38.9221 6.1326 38.5287 6.1326 38.02C6.1326 37.4922 5.97425 37.0939 5.65754 36.8252C5.35043 36.5564 4.87537 36.4221 4.23236 36.4221H2.96553V39.6035ZM10.4169 45.002V34.7809H13.656C14.7501 34.7809 15.609 35.0545 16.2328 35.6015C16.8566 36.1485 17.1685 36.8971 17.1685 37.8473C17.1685 38.3367 17.0582 38.7686 16.8374 39.1429C16.6263 39.5172 16.3432 39.8147 15.9881 40.0354C15.633 40.2465 15.2443 40.3665 14.822 40.3953L14.7644 40.2082C15.5034 40.2369 16.0553 40.4001 16.42 40.6976C16.7847 40.9855 16.9958 41.4606 17.0534 42.1228L17.2981 45.002H15.513L15.2971 42.5403C15.2683 42.1756 15.1963 41.8925 15.0812 41.6909C14.9756 41.4894 14.8076 41.3502 14.5773 41.2734C14.3566 41.1967 14.0495 41.1583 13.656 41.1583H12.202V45.002H10.4169ZM12.202 39.5172H13.6128C14.1694 39.5172 14.5917 39.3828 14.8796 39.1141C15.1771 38.8454 15.3259 38.4615 15.3259 37.9624C15.3259 37.4634 15.1771 37.0843 14.8796 36.8252C14.5917 36.5564 14.1694 36.4221 13.6128 36.4221H12.202V39.5172ZM20.2292 45.002V34.7809H26.5634V36.4221H22.0143V39.0853H26.3906V40.6688H22.0143V43.3608H26.6785V45.002H20.2292ZM32.9063 45.2323C32.1577 45.2323 31.5051 45.0835 30.9485 44.786C30.4014 44.4885 29.9695 44.071 29.6528 43.5336C29.3361 42.9865 29.149 42.3435 29.0914 41.6045L30.9053 41.5038C30.9724 41.974 31.0924 42.3675 31.2652 42.6842C31.4475 42.9913 31.6826 43.2265 31.9706 43.3896C32.2681 43.5432 32.6088 43.62 32.9927 43.62C33.3573 43.62 33.6645 43.572 33.914 43.476C34.1731 43.38 34.3698 43.2361 34.5042 43.0441C34.6386 42.8522 34.7058 42.6219 34.7058 42.3531C34.7058 42.0652 34.6386 41.8157 34.5042 41.6045C34.3698 41.3934 34.1299 41.1967 33.7844 41.0143C33.4389 40.832 32.9447 40.6544 32.3017 40.4817C31.6107 40.2993 31.0444 40.0882 30.603 39.8483C30.1615 39.6083 29.8352 39.3108 29.624 38.9557C29.4129 38.591 29.3073 38.1352 29.3073 37.5881C29.3073 36.9739 29.4417 36.4413 29.7104 35.9902C29.9887 35.5295 30.387 35.1744 30.9053 34.9249C31.4331 34.6754 32.0617 34.5506 32.7911 34.5506C33.5109 34.5506 34.1251 34.6898 34.6338 34.9681C35.1424 35.2368 35.5407 35.6255 35.8286 36.1342C36.1261 36.6332 36.3085 37.2282 36.3757 37.9192L34.5474 38.0056C34.4994 37.6313 34.3986 37.3098 34.2451 37.0411C34.1011 36.7628 33.8996 36.5468 33.6405 36.3933C33.3909 36.2397 33.0838 36.1629 32.7191 36.1629C32.2297 36.1629 31.841 36.2877 31.5531 36.5372C31.2652 36.7772 31.1212 37.0939 31.1212 37.4874C31.1212 37.7657 31.1836 37.996 31.3083 38.1784C31.4427 38.3607 31.6682 38.5239 31.9849 38.6678C32.3017 38.8118 32.7479 38.9557 33.3238 39.0997C34.1203 39.3108 34.7489 39.5603 35.2096 39.8483C35.6799 40.1362 36.0158 40.4817 36.2173 40.8848C36.4188 41.2878 36.5196 41.7629 36.5196 42.3099C36.5196 42.8954 36.3709 43.4088 36.0734 43.8503C35.7758 44.2918 35.3584 44.6325 34.8209 44.8724C34.2835 45.1123 33.6453 45.2323 32.9063 45.2323ZM39.2204 45.002V34.7809H45.5545V36.4221H41.0055V39.0853H45.3818V40.6688H41.0055V43.3608H45.6697V45.002H39.2204ZM48.4281 45.002V34.7809H50.3427L53.4378 42.1228V34.7809H55.1653V45.002H53.2507L50.1556 37.6601V45.002H48.4281ZM60.3997 45.002V36.4221H57.5494V34.7809H65.0352V36.4221H62.1848V45.002H60.3997ZM70.8886 45.2323C70.1401 45.2323 69.4875 45.0835 68.9308 44.786C68.3838 44.4885 67.9519 44.071 67.6352 43.5336C67.3185 42.9865 67.1313 42.3435 67.0738 41.6045L68.8876 41.5038C68.9548 41.974 69.0748 42.3675 69.2475 42.6842C69.4299 42.9913 69.665 43.2265 69.9529 43.3896C70.2504 43.5432 70.5911 43.62 70.975 43.62C71.3397 43.62 71.6468 43.572 71.8963 43.476C72.1555 43.38 72.3522 43.2361 72.4866 43.0441C72.6209 42.8522 72.6881 42.6219 72.6881 42.3531C72.6881 42.0652 72.6209 41.8157 72.4866 41.6045C72.3522 41.3934 72.1123 41.1967 71.7668 41.0143C71.4213 40.832 70.927 40.6544 70.284 40.4817C69.593 40.2993 69.0268 40.0882 68.5853 39.8483C68.1438 39.6083 67.8175 39.3108 67.6064 38.9557C67.3953 38.591 67.2897 38.1352 67.2897 37.5881C67.2897 36.9739 67.4241 36.4413 67.6928 35.9902C67.9711 35.5295 68.3694 35.1744 68.8876 34.9249C69.4155 34.6754 70.0441 34.5506 70.7735 34.5506C71.4933 34.5506 72.1075 34.6898 72.6161 34.9681C73.1248 35.2368 73.5231 35.6255 73.811 36.1342C74.1085 36.6332 74.2908 37.2282 74.358 37.9192L72.5298 38.0056C72.4818 37.6313 72.381 37.3098 72.2275 37.0411C72.0835 36.7628 71.882 36.5468 71.6228 36.3933C71.3733 36.2397 71.0662 36.1629 70.7015 36.1629C70.212 36.1629 69.8234 36.2877 69.5354 36.5372C69.2475 36.7772 69.1036 37.0939 69.1036 37.4874C69.1036 37.7657 69.1659 37.996 69.2907 38.1784C69.4251 38.3607 69.6506 38.5239 69.9673 38.6678C70.284 38.8118 70.7303 38.9557 71.3061 39.0997C72.1027 39.3108 72.7313 39.5603 73.192 39.8483C73.6622 40.1362 73.9981 40.4817 74.1997 40.8848C74.4012 41.2878 74.502 41.7629 74.502 42.3099C74.502 42.8954 74.3532 43.4088 74.0557 43.8503C73.7582 44.2918 73.3407 44.6325 72.8033 44.8724C72.2658 45.1123 71.6276 45.2323 70.8886 45.2323Z" fill="white"/>
<path d="M205.288 153.352C197.107 153.352 190.379 151.349 185.103 147.343C179.904 143.337 176.731 138.007 175.584 131.354L186.938 128.779C187.779 133.643 189.882 137.327 193.246 139.831C196.61 142.335 200.739 143.587 205.632 143.587C208.461 143.587 210.946 143.122 213.087 142.192C215.304 141.19 217.063 139.795 218.363 138.007C219.663 136.147 220.313 134.073 220.313 131.783C220.313 129.351 219.586 127.348 218.133 125.774C216.757 124.2 214.769 122.805 212.17 121.589C209.646 120.302 206.588 119.014 202.994 117.726C198.33 116.081 194.316 114.293 190.952 112.361C187.664 110.43 185.103 108.14 183.268 105.493C181.509 102.775 180.63 99.5201 180.63 95.7287C180.63 91.8657 181.624 88.4676 183.612 85.5346C185.676 82.5301 188.544 80.1693 192.214 78.4525C195.884 76.7356 200.127 75.8771 204.944 75.8771C210.067 75.8771 214.616 76.9859 218.592 79.2036C222.645 81.3497 225.856 84.6046 228.226 88.9684L218.936 94.3337C217.254 91.4722 215.19 89.2903 212.743 87.788C210.373 86.2858 207.659 85.5346 204.6 85.5346C202.23 85.5346 200.089 85.9638 198.178 86.8223C196.343 87.6807 194.89 88.8611 193.819 90.3634C192.825 91.7941 192.328 93.511 192.328 95.514C192.328 97.5886 192.94 99.377 194.163 100.879C195.463 102.382 197.337 103.741 199.783 104.957C202.306 106.102 205.441 107.318 209.188 108.605C213.928 110.322 217.981 112.182 221.345 114.185C224.709 116.117 227.309 118.442 229.144 121.16C230.979 123.878 231.896 127.205 231.896 131.139C231.896 135.432 230.749 139.259 228.455 142.621C226.238 145.912 223.142 148.523 219.166 150.454C215.19 152.386 210.564 153.352 205.288 153.352Z" fill="#3FD9FB"/>
<path d="M241.915 152.064V77.2721H266.573C272.843 77.2721 277.928 78.1305 281.827 79.8474C285.803 81.5643 288.708 84.0323 290.544 87.2515C292.455 90.3991 293.411 94.1548 293.411 98.5186C293.411 104.957 291.423 110 287.447 113.649C283.547 117.297 277.889 119.407 270.473 119.98C269.173 120.051 267.682 120.087 266 120.087C264.318 120.087 262.751 120.087 261.298 120.087H253.614V152.064H241.915ZM286.185 152.064L265.656 118.799L277.584 117.404L299.604 152.064H286.185ZM253.614 110.43H265.427C268.638 110.43 271.429 110.072 273.799 109.356C276.246 108.57 278.195 107.318 279.648 105.601C281.101 103.884 281.827 101.559 281.827 98.6259C281.827 95.6929 281.101 93.4037 279.648 91.7583C278.195 90.0415 276.246 88.8253 273.799 88.11C271.352 87.3946 268.561 87.0369 265.427 87.0369H253.614V110.43Z" fill="#3FD9FB"/>
<path d="M306.682 152.39V77.2934H359.421V87.098H318.351V109.078H355.989V118.882H318.351V142.586H359.421V152.39H306.682Z" fill="#3FD9FB"/>
<path d="M136.838 215.868V75.002H157.972V215.868H136.838Z" fill="white"/>
<path d="M0 215.868L56.1512 75.002H72.5201L128.464 215.868H105.465L64.4392 104.913L23.2064 215.868H0ZM33.152 184.542L39.5752 166.15L64.5428 161.932L88.8889 166.15L95.9337 184.542L64.5428 180.766L33.152 184.542Z" fill="white"/>
<path d="M334.036 215.562V169.917H316.429V163.062H359.519V169.917H341.99V215.562H334.036Z" fill="white"/>
<path d="M225.206 215.562V163.062H260.805V169.917H233.083V185.283H258.489V192.137H233.083V208.708H260.805V215.562H225.206Z" fill="white"/>
<path d="M175.035 215.562V163.062H183.221L210.017 205.62H208.164V163.062H215.963V215.562H207.623L181.059 172.93H182.912V215.562H175.035Z" fill="white"/>
<path d="M311.593 216.018H303.237L291.951 198.569L292.755 197.326L296.161 192.53L311.593 216.018Z" fill="url(#paint1_linear_7521_744)" fill-opacity="0.973695"/>
<path d="M296.161 186.714L292.755 182.005L291.958 180.766L302.906 163.742H311.188L296.161 186.714Z" fill="url(#paint2_linear_7521_744)" fill-opacity="0.973695"/>
<path d="M290.026 183.782L294.259 189.634L290.026 195.594L276.811 216.023H268.456L283.928 192.472H266.75V186.922H284.019L268.861 163.748H277.142L290.026 183.782Z" fill="url(#paint3_linear_7521_744)" fill-opacity="0.973695"/>
<path d="M1.09408 256.023V254.382H3.4262V247.444H1.09408V245.802H7.54339V247.444H5.21127V254.382H7.54339V256.023H1.09408ZM10.4457 256.023V245.802H12.3604L15.4554 253.144V245.802H17.1829V256.023H15.2683L12.1732 248.682V256.023H10.4457ZM29.6672 256.023V245.802H32.9063C33.6069 245.802 34.2259 245.937 34.7633 246.206C35.3008 246.474 35.7183 246.849 36.0158 247.328C36.3133 247.808 36.462 248.379 36.462 249.041C36.462 249.694 36.3133 250.26 36.0158 250.74C35.7183 251.22 35.3008 251.594 34.7633 251.863C34.2259 252.122 33.6069 252.252 32.9063 252.252H31.4523V256.023H29.6672ZM31.4523 250.625H32.7191C33.3621 250.625 33.8372 250.491 34.1443 250.222C34.461 249.944 34.6194 249.55 34.6194 249.041C34.6194 248.514 34.461 248.115 34.1443 247.847C33.8372 247.578 33.3621 247.444 32.7191 247.444H31.4523V250.625ZM38.2847 256.023L41.1926 245.802H43.4096L46.3175 256.023H44.4893L42.3011 247.818L40.1129 256.023H38.2847ZM40.0698 253.605L40.5592 252.007H44.043L44.5324 253.605H40.0698ZM48.3993 256.023V245.802H51.6383C52.7324 245.802 53.5914 246.076 54.2152 246.623C54.839 247.17 55.1509 247.919 55.1509 248.869C55.1509 249.358 55.0405 249.79 54.8198 250.164C54.6087 250.539 54.3255 250.836 53.9705 251.057C53.6154 251.268 53.2267 251.388 52.8044 251.417L52.7468 251.23C53.4858 251.258 54.0376 251.422 54.4023 251.719C54.767 252.007 54.9782 252.482 55.0357 253.144L55.2805 256.023H53.4954L53.2795 253.562C53.2507 253.197 53.1787 252.914 53.0635 252.712C52.9579 252.511 52.79 252.372 52.5597 252.295C52.3389 252.218 52.0318 252.18 51.6383 252.18H50.1844V256.023H48.3993ZM50.1844 250.539H51.5951C52.1518 250.539 52.5741 250.404 52.862 250.136C53.1595 249.867 53.3082 249.483 53.3082 248.984C53.3082 248.485 53.1595 248.106 52.862 247.847C52.5741 247.578 52.1518 247.444 51.5951 247.444H50.1844V250.539ZM60.3997 256.023V247.444H57.5494V245.802H65.0352V247.444H62.1848V256.023H60.3997ZM67.4193 256.023V245.802H69.3339L72.429 253.144V245.802H74.1565V256.023H72.2418L69.1468 248.682V256.023H67.4193ZM77.2028 256.023V245.802H83.5369V247.444H78.9878V250.107H83.3642V251.69H78.9878V254.382H83.6521V256.023H77.2028ZM86.3816 256.023V245.802H89.6207C90.7148 245.802 91.5737 246.076 92.1975 246.623C92.8214 247.17 93.1333 247.919 93.1333 248.869C93.1333 249.358 93.0229 249.79 92.8022 250.164C92.591 250.539 92.3079 250.836 91.9528 251.057C91.5977 251.268 91.209 251.388 90.7868 251.417L90.7292 251.23C91.4682 251.258 92.02 251.422 92.3847 251.719C92.7494 252.007 92.9605 252.482 93.0181 253.144L93.2628 256.023H91.4778L91.2618 253.562C91.233 253.197 91.161 252.914 91.0459 252.712C90.9403 252.511 90.7724 252.372 90.542 252.295C90.3213 252.218 90.0142 252.18 89.6207 252.18H88.1667V256.023H86.3816ZM88.1667 250.539H89.5775C90.1341 250.539 90.5564 250.404 90.8443 250.136C91.1419 249.867 91.2906 249.483 91.2906 248.984C91.2906 248.485 91.1419 248.106 90.8443 247.847C90.5564 247.578 90.1341 247.444 89.5775 247.444H88.1667V250.539ZM99.3754 256.254C98.6268 256.254 97.9742 256.105 97.4176 255.808C96.8705 255.51 96.4387 255.093 96.122 254.555C95.8053 254.008 95.6181 253.365 95.5605 252.626L97.3744 252.525C97.4416 252.996 97.5615 253.389 97.7343 253.706C97.9166 254.013 98.1518 254.248 98.4397 254.411C98.7372 254.565 99.0779 254.641 99.4618 254.641C99.8265 254.641 100.134 254.593 100.383 254.497C100.642 254.402 100.839 254.258 100.973 254.066C101.108 253.874 101.175 253.643 101.175 253.375C101.175 253.087 101.108 252.837 100.973 252.626C100.839 252.415 100.599 252.218 100.254 252.036C99.9081 251.853 99.4138 251.676 98.7708 251.503C98.0798 251.321 97.5136 251.11 97.0721 250.87C96.6306 250.63 96.3043 250.332 96.0932 249.977C95.882 249.613 95.7765 249.157 95.7765 248.61C95.7765 247.995 95.9108 247.463 96.1796 247.012C96.4579 246.551 96.8562 246.196 97.3744 245.946C97.9022 245.697 98.5309 245.572 99.2602 245.572C99.98 245.572 100.594 245.711 101.103 245.99C101.612 246.258 102.01 246.647 102.298 247.156C102.595 247.655 102.778 248.25 102.845 248.941L101.017 249.027C100.969 248.653 100.868 248.331 100.714 248.063C100.57 247.784 100.369 247.568 100.11 247.415C99.8601 247.261 99.553 247.184 99.1883 247.184C98.6988 247.184 98.3101 247.309 98.0222 247.559C97.7343 247.799 97.5903 248.115 97.5903 248.509C97.5903 248.787 97.6527 249.017 97.7775 249.2C97.9118 249.382 98.1374 249.545 98.4541 249.689C98.7708 249.833 99.2171 249.977 99.7929 250.121C100.589 250.332 101.218 250.582 101.679 250.87C102.149 251.158 102.485 251.503 102.686 251.906C102.888 252.309 102.989 252.784 102.989 253.331C102.989 253.917 102.84 254.43 102.542 254.872C102.245 255.313 101.827 255.654 101.29 255.894C100.753 256.134 100.114 256.254 99.3754 256.254ZM105.2 256.023V245.802H106.985V250.683L106.265 250.064H111.275L110.555 250.683V245.802H112.34V256.023H110.555V251.086L111.275 251.705H106.265L106.985 251.086V256.023H105.2ZM115.041 256.023V254.382H117.373V247.444H115.041V245.802H121.49V247.444H119.158V254.382H121.49V256.023H115.041ZM124.623 256.023V245.802H127.862C128.563 245.802 129.182 245.937 129.719 246.206C130.257 246.474 130.674 246.849 130.972 247.328C131.269 247.808 131.418 248.379 131.418 249.041C131.418 249.694 131.269 250.26 130.972 250.74C130.674 251.22 130.257 251.594 129.719 251.863C129.182 252.122 128.563 252.252 127.862 252.252H126.408V256.023H124.623ZM126.408 250.625H127.675C128.318 250.625 128.793 250.491 129.1 250.222C129.417 249.944 129.575 249.55 129.575 249.041C129.575 248.514 129.417 248.115 129.1 247.847C128.793 247.578 128.318 247.444 127.675 247.444H126.408V250.625ZM143.888 256.023L142.808 245.802H144.536L145.27 254.267H145.097L146.09 246.954H147.415L148.408 254.267H148.235L148.97 245.802H150.697L149.617 256.023H147.559L146.58 249.113H146.925L145.946 256.023H143.888ZM153.024 256.023V254.382H155.356V247.444H153.024V245.802H159.473V247.444H157.141V254.382H159.473V256.023H153.024ZM164.851 256.023V247.444H162.001V245.802H169.487V247.444H166.636V256.023H164.851ZM171.669 256.023V245.802H173.454V250.683L172.735 250.064H177.744L177.024 250.683V245.802H178.81V256.023H177.024V251.086L177.744 251.705H172.735L173.454 251.086V256.023H171.669Z" fill="white"/>
<path d="M132.604 300.71C132.284 300.71 132.023 300.355 132.023 299.921V268.053C132.023 267.618 132.284 267.264 132.604 267.264C132.924 267.264 133.185 267.619 133.185 268.053V299.924C133.185 300.357 132.927 300.71 132.604 300.71Z" fill="#6F7C95"/>
<path d="M22.968 291.843H20.4001C20.2075 291.843 20.0517 291.687 20.0517 291.495V282.267C20.0517 280.678 18.7642 279.39 17.1764 279.39H12.8041C11.2163 279.39 9.9274 280.678 9.9274 282.267V291.495C9.9274 291.687 9.7716 291.843 9.58039 291.843H7.01249C6.81986 291.843 6.66406 291.687 6.66406 291.495V282.267C6.66406 278.876 9.41184 276.127 12.8027 276.127H17.175C20.5658 276.127 23.3136 278.876 23.3136 282.267V291.495C23.3136 291.687 23.1578 291.843 22.9652 291.843" fill="#1476FB"/>
<path d="M3.11164 291.842H0.543742C0.351114 291.842 0.195312 291.686 0.195312 291.493V276.491C0.195312 276.298 0.351114 276.143 0.543742 276.143H3.11164C3.30427 276.143 3.46007 276.298 3.46007 276.491V291.493C3.46007 291.686 3.30427 291.842 3.11164 291.842Z" fill="#1476FB"/>
<path d="M106.893 291.842H104.325C104.132 291.842 103.977 291.686 103.977 291.493V276.491C103.977 276.298 104.132 276.143 104.325 276.143H106.893C107.086 276.143 107.241 276.298 107.241 276.491V291.493C107.241 291.686 107.086 291.842 106.893 291.842Z" fill="#1476FB"/>
<path d="M99.2238 283.309C99.7082 282.594 99.9929 281.732 99.9929 280.804V280.603C99.9929 278.131 97.9902 276.127 95.5186 276.127H84.0515C83.8589 276.127 83.7031 276.283 83.7031 276.474V291.496C83.7031 291.689 83.8589 291.845 84.0515 291.845H95.9591C98.6063 291.845 100.752 289.699 100.752 287.051V286.809C100.752 285.428 100.161 284.185 99.2238 283.309ZM86.9665 279.39H95.5171C96.1871 279.39 96.7296 279.933 96.7296 280.603V280.804C96.7296 281.474 96.1871 282.016 95.5171 282.016H86.9665V279.392V279.39ZM97.4888 287.05C97.4888 287.896 96.8032 288.58 95.9591 288.58H86.9665V285.278H95.9591C96.8046 285.278 97.4888 285.964 97.4888 286.808V287.05Z" fill="#1476FB"/>
<path d="M50.444 276.127H46.0717C44.2899 276.127 42.6865 276.886 41.5648 278.1C40.443 276.888 38.8396 276.127 37.0578 276.127H32.6855C29.2947 276.127 26.5469 278.876 26.5469 282.267V291.495C26.5469 291.687 26.7027 291.843 26.8953 291.843H29.4632C29.6544 291.843 29.8102 291.687 29.8102 291.495V282.267C29.8102 280.679 31.0977 279.39 32.6855 279.39H37.0578C38.6456 279.39 39.9345 280.678 39.9345 282.267V291.495C39.9345 291.687 40.0903 291.843 40.2829 291.843H42.8508C43.0435 291.843 43.1978 291.687 43.1978 291.495V282.267C43.1978 280.678 44.4853 279.39 46.0745 279.39H50.4469C52.0346 279.39 53.3221 280.678 53.3221 282.267V291.495C53.3221 291.687 53.4779 291.843 53.6706 291.843H56.2385C56.4311 291.843 56.5869 291.687 56.5869 291.495V282.267C56.5869 278.876 53.8377 276.127 50.4483 276.127" fill="#1476FB"/>
<mask id="mask0_7521_744" style="mask-type:luminance" maskUnits="userSpaceOnUse" x="59" y="276" width="19" height="7">
<path d="M65.5482 276.123C61.5116 276.182 59.217 278.733 59.1094 282.698C59.1094 282.723 59.142 282.735 59.1561 282.712C60.5527 280.396 63.0582 278.983 65.7621 278.983C66.4972 278.983 74.6088 278.987 74.7292 278.987C75.7901 278.987 76.5833 279.239 77.147 279.678C77.1654 279.692 77.1909 279.672 77.1796 279.651C76.1881 277.838 74.3865 276.133 72.2123 276.117C72.2066 276.117 65.5482 276.121 65.5482 276.121" fill="white"/>
</mask>
<g mask="url(#mask0_7521_744)">
<path d="M77.1923 276.117H59.1094V282.733H77.1923V276.117Z" fill="url(#paint4_linear_7521_744)"/>
</g>
<mask id="mask1_7521_744" style="mask-type:luminance" maskUnits="userSpaceOnUse" x="74" y="276" width="8" height="16">
<path d="M74.13 276.117C74.1073 276.117 74.1017 276.148 74.1215 276.158C76.3863 277.296 78.3664 279.545 78.3664 283.981C78.3664 288.417 76.7461 290.501 74.2546 291.824C74.2348 291.833 74.2405 291.862 74.2631 291.863C74.7617 291.893 81.219 292.173 81.219 283.992C81.219 278.212 78.3097 276.092 74.8056 276.092C74.5832 276.092 74.358 276.1 74.13 276.117Z" fill="white"/>
</mask>
<g mask="url(#mask1_7521_744)">
<path d="M72.8125 276.636L74.3818 295.029L82.5784 291.614L81.0105 273.223L72.8125 276.636Z" fill="url(#paint5_linear_7521_744)"/>
</g>
<mask id="mask2_7521_744" style="mask-type:luminance" maskUnits="userSpaceOnUse" x="59" y="279" width="19" height="13">
<path d="M62.777 279.941C61.5504 280.479 60.4924 281.341 59.7176 282.433C58.4443 284.171 58.9358 288.003 60.7785 289.999C61.998 291.296 63.8251 291.874 65.5049 291.854L72.339 291.859C73.0486 291.861 73.7483 291.682 74.3658 291.333C75.5612 290.629 76.6419 289.556 77.1731 288.287C77.1816 288.265 77.1561 288.247 77.1391 288.261C76.9989 288.377 76.4422 288.989 73.9678 288.989H65.5474C63.0022 288.989 61.9201 287.714 61.9201 283.981C61.9201 281.07 62.5575 280.246 62.8067 279.979C62.8223 279.962 62.8067 279.936 62.7869 279.936C62.7841 279.936 62.7798 279.936 62.7756 279.938" fill="white"/>
</mask>
<g mask="url(#mask2_7521_744)">
<path d="M50.2109 288.46L71.8221 297.426L85.4236 283.358L63.8124 274.393L50.2109 288.46Z" fill="url(#paint6_linear_7521_744)"/>
</g>
<path d="M215.406 282.394V289.595C215.406 289.722 215.353 289.837 215.27 289.921C215.186 290.004 215.07 290.057 214.944 290.057H210.895C210.767 290.057 210.651 290.004 210.567 289.921C210.484 289.837 210.433 289.721 210.433 289.595V282.39C210.433 282.15 210.402 281.918 210.344 281.697C210.286 281.476 210.199 281.267 210.09 281.071C209.886 280.707 209.601 280.394 209.259 280.159C208.916 279.924 208.516 279.765 208.084 279.709C208.069 279.706 208.055 279.704 208.039 279.703C208.024 279.701 208.008 279.7 207.992 279.699C207.954 279.694 207.916 279.692 207.878 279.689C207.839 279.686 207.8 279.686 207.762 279.684C207.007 279.675 206.322 279.989 205.827 280.493C205.331 280.997 205.022 281.694 205.022 282.449V289.593C205.022 289.721 204.97 289.836 204.886 289.919C204.803 290.003 204.687 290.055 204.56 290.055H200.511C200.384 290.055 200.267 290.003 200.184 289.919C200.1 289.836 200.049 289.72 200.049 289.593V282.381C200.049 282.35 200.049 282.319 200.049 282.288C200.049 282.257 200.049 282.225 200.049 282.194C200.09 280.459 200.718 278.86 201.74 277.59C202.763 276.319 204.181 275.377 205.801 274.958C205.805 274.958 205.811 274.955 205.815 274.954C205.82 274.952 205.825 274.951 205.83 274.95C206.737 274.731 207.628 274.676 208.48 274.758C209.329 274.84 210.14 275.063 210.886 275.4C210.931 275.42 210.977 275.441 211.022 275.462C211.067 275.483 211.111 275.506 211.157 275.527C211.179 275.539 211.2 275.55 211.222 275.561C211.243 275.573 211.266 275.584 211.287 275.595C211.31 275.608 211.334 275.619 211.356 275.632C211.379 275.645 211.402 275.658 211.424 275.67C212.61 276.322 213.604 277.278 214.302 278.434C215.001 279.59 215.403 280.944 215.404 282.391L215.406 282.394ZM180.226 290.023H176.176C176.049 290.023 175.933 289.972 175.849 289.887C175.765 289.803 175.713 289.687 175.713 289.559V267.487C175.713 267.359 175.764 267.243 175.849 267.159C175.933 267.076 176.049 267.023 176.176 267.023H180.226C180.353 267.023 180.469 267.074 180.553 267.159C180.636 267.243 180.689 267.359 180.689 267.487V289.561C180.689 289.688 180.638 289.805 180.553 289.888C180.469 289.972 180.353 290.024 180.226 290.024V290.023ZM173.715 279.064V279.105V279.146L173.71 279.498L173.706 279.849C173.703 279.976 173.658 280.085 173.583 280.165C173.508 280.244 173.4 280.292 173.275 280.301C173.267 280.301 173.169 280.301 173.073 280.301C172.977 280.301 172.883 280.301 172.883 280.301H171.437C171.766 280.956 171.977 281.605 172.081 282.257C172.186 282.908 172.186 283.563 172.091 284.228C171.878 285.738 171.227 287.035 170.219 288.017C169.21 288.999 167.846 289.663 166.205 289.906C165.689 289.983 165.168 290.02 164.644 290.038C164.12 290.055 163.593 290.054 163.066 290.051C162.875 290.051 162.684 290.05 162.494 290.05C162.303 290.05 162.113 290.05 161.923 290.054C161.599 290.059 161.304 290.174 161.09 290.364C160.876 290.555 160.742 290.821 160.738 291.13C160.735 291.411 160.824 291.637 161.004 291.796C161.184 291.955 161.453 292.042 161.806 292.048C161.97 292.051 162.201 292.051 162.478 292.051C162.756 292.051 163.082 292.051 163.437 292.051C164.426 292.049 165.65 292.047 166.737 292.059C167.825 292.072 168.777 292.099 169.22 292.157C170.482 292.319 171.525 292.827 172.288 293.558C173.052 294.289 173.535 295.243 173.681 296.293C173.764 297.241 173.47 298.31 173.145 299.158C172.821 300.007 172.465 300.634 172.428 300.698C172.428 300.698 172.428 300.696 172.43 300.695C172.431 300.694 172.43 300.695 172.431 300.694C172.431 300.695 172.43 300.696 172.428 300.698C172.427 300.699 172.426 300.701 172.426 300.702C172.389 300.777 172.335 300.84 172.266 300.882C172.196 300.925 172.113 300.95 172.018 300.95C172.018 300.95 172.011 300.95 172.008 300.951C172.005 300.953 172.002 300.951 171.999 300.951H171.851L171.702 300.949H167.372L167.212 300.951C167.209 300.951 167.205 300.951 167.202 300.95C167.199 300.949 167.195 300.949 167.192 300.949C167.058 300.947 166.944 300.899 166.864 300.818C166.783 300.738 166.733 300.624 166.73 300.491C166.73 300.491 166.732 300.225 166.733 299.943C166.735 299.661 166.736 299.362 166.737 299.296C166.737 298.844 166.638 298.514 166.423 298.299C166.208 298.083 165.879 297.98 165.42 297.981C164.504 297.981 163.586 297.993 162.67 298.003C161.752 298.012 160.835 298.022 159.918 298.024C159.716 298.024 159.515 298.017 159.314 298C159.115 297.983 158.915 297.956 158.717 297.916C157.735 297.718 156.906 297.344 156.263 296.767C155.622 296.191 155.166 295.412 154.932 294.402C154.698 293.389 154.778 292.365 155.12 291.448C155.464 290.53 156.074 289.718 156.899 289.129C157.031 289.035 157.164 288.945 157.299 288.856C157.433 288.766 157.568 288.678 157.7 288.588C157.728 288.551 157.718 288.509 157.698 288.475C157.678 288.441 157.65 288.415 157.644 288.412C156.285 287.595 155.419 286.552 154.939 285.347C154.459 284.142 154.364 282.775 154.55 281.306C154.731 279.869 155.259 278.68 156.069 277.714C156.879 276.748 157.97 276.003 159.279 275.454C159.806 275.231 160.338 275.064 160.876 274.945C161.413 274.826 161.956 274.755 162.498 274.727C162.498 274.727 165.076 274.724 167.709 274.721C170.341 274.719 173.028 274.716 173.243 274.716H173.257C173.389 274.72 173.499 274.768 173.579 274.848C173.658 274.927 173.705 275.039 173.709 275.169L173.712 275.485L173.715 275.801V275.879L173.716 275.957H173.715C173.715 276.404 173.715 276.93 173.715 277.469C173.715 278.009 173.715 278.561 173.715 279.061V279.064ZM167.194 282.384C167.194 281.41 166.798 280.529 166.161 279.89C165.522 279.251 164.641 278.857 163.667 278.857C162.692 278.857 161.811 279.252 161.173 279.89C160.534 280.529 160.14 281.41 160.14 282.384C160.14 283.359 160.535 284.24 161.173 284.878C161.811 285.517 162.692 285.911 163.667 285.911C164.641 285.911 165.522 285.516 166.161 284.878C166.8 284.24 167.194 283.359 167.194 282.384ZM227.07 284.017H231.598C231.747 284.017 231.877 284.087 231.96 284.193C232.044 284.299 232.082 284.442 232.047 284.587C231.642 286.269 230.681 287.735 229.371 288.78C228.061 289.826 226.401 290.45 224.595 290.45C222.448 290.45 220.506 289.567 219.114 288.145C217.722 286.721 216.88 284.758 216.931 282.599C216.979 280.581 217.821 278.745 219.155 277.398C220.489 276.051 222.316 275.192 224.333 275.124C226.186 275.061 227.897 275.658 229.251 276.696C230.605 277.734 231.603 279.214 232.03 280.921C232.067 281.067 232.03 281.21 231.945 281.316C231.86 281.422 231.731 281.493 231.581 281.493H227.027C227.009 281.493 226.992 281.488 226.976 281.479C226.961 281.471 226.948 281.458 226.939 281.441C226.706 281.036 226.37 280.697 225.968 280.461C225.565 280.223 225.097 280.087 224.595 280.087C223.798 280.087 223.08 280.432 222.585 280.982C222.09 281.531 221.818 282.285 221.907 283.101C221.976 283.731 222.268 284.298 222.701 284.723C223.133 285.146 223.707 285.428 224.339 285.486C224.908 285.538 225.445 285.415 225.901 285.163C226.357 284.911 226.733 284.531 226.98 284.071C226.989 284.054 227.002 284.041 227.017 284.031C227.033 284.021 227.051 284.017 227.07 284.017ZM248.917 282.666C248.922 282.894 248.917 283.119 248.902 283.343C248.886 283.565 248.862 283.786 248.828 284.004C248.811 284.116 248.753 284.213 248.672 284.282C248.592 284.351 248.485 284.391 248.372 284.391H238.083C238.277 284.781 238.539 285.129 238.857 285.421C239.174 285.713 239.544 285.946 239.952 286.108C240.032 286.139 240.113 286.169 240.197 286.194C240.28 286.22 240.364 286.242 240.45 286.262C240.464 286.266 240.478 286.269 240.493 286.272C240.507 286.275 240.521 286.278 240.535 286.281C240.549 286.283 240.563 286.286 240.579 286.289C240.595 286.292 240.609 286.295 240.623 286.298C240.656 286.303 240.69 286.309 240.722 286.315C240.755 286.319 240.789 286.324 240.823 286.327C240.834 286.329 240.844 286.33 240.855 286.332C240.867 286.333 240.876 286.334 240.888 286.334C240.906 286.336 240.923 286.339 240.942 286.34C240.96 286.341 240.977 286.343 240.995 286.344C241.015 286.346 241.035 286.347 241.054 286.349C241.073 286.349 241.093 286.351 241.112 286.351C241.134 286.351 241.158 286.351 241.181 286.351C241.204 286.351 241.228 286.351 241.25 286.351C241.273 286.351 241.299 286.351 241.323 286.351C241.347 286.351 241.371 286.351 241.395 286.349C241.41 286.349 241.425 286.349 241.44 286.346C241.456 286.343 241.47 286.344 241.486 286.343C241.505 286.343 241.527 286.34 241.546 286.339C241.566 286.337 241.588 286.334 241.607 286.333C241.623 286.332 241.637 286.33 241.653 286.329C241.668 286.327 241.682 286.326 241.698 286.323C241.712 286.322 241.726 286.32 241.742 286.317C241.757 286.315 241.772 286.313 241.786 286.31C242.123 286.259 242.444 286.16 242.743 286.02C243.042 285.88 243.317 285.698 243.563 285.485C243.573 285.476 243.583 285.47 243.595 285.466C243.606 285.462 243.617 285.459 243.63 285.459H247.764C247.934 285.459 248.076 285.548 248.155 285.676C248.235 285.803 248.253 285.969 248.179 286.123C247.558 287.426 246.579 288.528 245.369 289.299C244.16 290.071 242.721 290.513 241.175 290.497C239.113 290.479 237.234 289.632 235.861 288.275C234.487 286.918 233.619 285.05 233.576 282.987C233.531 280.818 234.387 278.847 235.796 277.425C237.204 276.003 239.164 275.129 241.33 275.151C243.392 275.172 245.269 276.02 246.641 277.379C248.014 278.737 248.88 280.605 248.923 282.667L248.917 282.666ZM244.406 280.856C244.155 280.352 243.789 279.915 243.338 279.582C242.889 279.251 242.358 279.023 241.782 278.935C241.767 278.932 241.753 278.931 241.738 278.928C241.723 278.927 241.708 278.924 241.694 278.922C241.678 278.921 241.664 278.918 241.648 278.917C241.633 278.915 241.619 278.914 241.603 278.913C241.583 278.91 241.562 278.908 241.542 278.907C241.522 278.905 241.501 278.904 241.481 278.903C241.466 278.903 241.452 278.901 241.436 278.9C241.42 278.9 241.406 278.898 241.391 278.897C241.367 278.897 241.342 278.896 241.318 278.894C241.294 278.894 241.27 278.894 241.246 278.894C241.222 278.894 241.199 278.894 241.177 278.894C241.154 278.894 241.13 278.894 241.107 278.897C241.088 278.897 241.068 278.897 241.049 278.9C241.031 278.903 241.01 278.903 240.991 278.904C240.973 278.904 240.956 278.907 240.937 278.908C240.919 278.91 240.902 278.911 240.884 278.914C240.872 278.914 240.862 278.915 240.851 278.917C240.84 278.918 240.83 278.92 240.818 278.921C240.784 278.925 240.752 278.93 240.718 278.934C240.685 278.938 240.651 278.944 240.619 278.951C240.603 278.954 240.589 278.956 240.575 278.959C240.561 278.962 240.546 278.965 240.531 278.968C240.517 278.971 240.503 278.973 240.488 278.978C240.474 278.982 240.46 278.983 240.446 278.988C240.416 278.995 240.386 279.002 240.357 279.009C240.327 279.016 240.297 279.024 240.269 279.033C240.201 279.053 240.133 279.075 240.066 279.098C240 279.122 239.933 279.148 239.868 279.175C239.479 279.339 239.126 279.571 238.823 279.857C238.52 280.143 238.268 280.482 238.081 280.859H244.403L244.406 280.856ZM198.02 282.383V289.588C198.02 289.715 197.969 289.83 197.885 289.914C197.802 289.997 197.687 290.048 197.559 290.048H194.341C194.214 290.048 194.099 289.997 194.016 289.914C193.932 289.83 193.881 289.715 193.881 289.588V289.191C193.353 289.465 192.789 289.68 192.2 289.826C191.609 289.972 190.992 290.05 190.356 290.05C188.207 290.05 186.264 289.166 184.873 287.742C183.481 286.319 182.639 284.354 182.692 282.193C182.741 280.172 183.587 278.335 184.924 276.988C186.262 275.641 188.092 274.784 190.113 274.721C190.819 274.7 191.503 274.774 192.154 274.93C192.806 275.087 193.425 275.326 194 275.638C195.143 276.257 196.11 277.158 196.81 278.248C197.51 279.339 197.94 280.616 198.011 281.992C198.013 282.023 198.014 282.055 198.015 282.088C198.015 282.121 198.018 282.152 198.018 282.184C198.018 282.218 198.02 282.251 198.02 282.285C198.02 282.319 198.02 282.352 198.02 282.386V282.383ZM193.881 282.383C193.881 281.408 193.486 280.527 192.848 279.888C192.21 279.25 191.329 278.856 190.354 278.856C189.38 278.856 188.499 279.251 187.86 279.888C187.221 280.527 186.827 281.408 186.827 282.383C186.827 283.357 187.223 284.238 187.86 284.877C188.499 285.516 189.38 285.909 190.354 285.909C191.329 285.909 192.21 285.514 192.848 284.877C193.487 284.238 193.881 283.357 193.881 282.383Z" fill="url(#paint7_linear_7521_744)"/>
<path d="M262.623 271.708C261.55 276.481 260.326 279.355 253.628 280.838C253.445 280.877 253.448 281.136 253.631 281.175C259.235 282.312 261.309 284.386 262.625 290.289C262.666 290.472 262.925 290.469 262.962 290.285C264.05 284.818 266.163 282.243 271.967 281.159C272.151 281.125 272.157 280.864 271.974 280.822C266.278 279.498 264.174 277.672 262.96 271.71C262.924 271.529 262.664 271.525 262.625 271.706L262.623 271.708ZM262.704 284.048C262.368 282.594 261.224 281.449 259.769 281.114C259.662 281.09 259.662 280.938 259.769 280.914C261.224 280.578 262.368 279.434 262.704 277.979C262.728 277.872 262.88 277.872 262.904 277.979C263.239 279.434 264.384 280.578 265.838 280.914C265.946 280.938 265.946 281.09 265.838 281.114C264.384 281.449 263.239 282.594 262.904 284.048C262.88 284.156 262.728 284.156 262.704 284.048Z" fill="url(#paint8_linear_7521_744)"/>
<path d="M257.322 275.905C257.067 275.106 256.471 274.491 255.859 274.248C255.764 274.209 255.754 274.088 255.84 274.037C256.634 273.572 257.107 271.838 257.318 270.778C257.343 270.653 257.52 270.652 257.546 270.778C257.765 271.83 258.226 273.565 259.016 274.035C259.1 274.085 259.095 274.205 259.005 274.241C258.407 274.479 257.809 275.113 257.54 275.905C257.505 276.008 257.355 276.008 257.322 275.903V275.905Z" fill="url(#paint9_linear_7521_744)"/>
<path d="M268.031 285.911C268.228 286.449 268.633 286.864 269.053 287.047C269.141 287.085 269.155 287.195 269.077 287.251C268.56 287.619 268.212 288.748 268.039 289.515C268.012 289.637 267.838 289.637 267.811 289.515C267.643 288.748 267.318 287.609 266.787 287.246C266.708 287.193 266.721 287.081 266.808 287.041C267.223 286.854 267.617 286.435 267.817 285.905C267.854 285.807 267.997 285.812 268.032 285.911H268.031Z" fill="url(#paint10_linear_7521_744)"/>
<defs>
<linearGradient id="paint0_linear_7521_744" x1="111.139" y1="24.0027" x2="111.139" y2="0" gradientUnits="userSpaceOnUse">
<stop stop-color="#A134F0"/>
<stop offset="1" stop-color="#F994EB"/>
</linearGradient>
<linearGradient id="paint1_linear_7521_744" x1="280.743" y1="163.897" x2="280.743" y2="215.87" gradientUnits="userSpaceOnUse">
<stop stop-color="#3FD9FB"/>
<stop offset="1" stop-color="white"/>
</linearGradient>
<linearGradient id="paint2_linear_7521_744" x1="280.743" y1="163.897" x2="280.743" y2="215.87" gradientUnits="userSpaceOnUse">
<stop stop-color="#3FD9FB"/>
<stop offset="1" stop-color="white"/>
</linearGradient>
<linearGradient id="paint3_linear_7521_744" x1="280.743" y1="163.897" x2="280.743" y2="215.87" gradientUnits="userSpaceOnUse">
<stop stop-color="#3FD9FB"/>
<stop offset="1" stop-color="white"/>
</linearGradient>
<linearGradient id="paint4_linear_7521_744" x1="59.1345" y1="279.733" x2="77.1929" y2="279.733" gradientUnits="userSpaceOnUse">
<stop stop-color="#A2CF70"/>
<stop offset="0.5" stop-color="#5DA1B3"/>
<stop offset="0.77" stop-color="#2F84DF"/>
<stop offset="1" stop-color="#1476F9"/>
</linearGradient>
<linearGradient id="paint5_linear_7521_744" x1="77.0559" y1="274.553" x2="83.8276" y2="290.817" gradientUnits="userSpaceOnUse">
<stop stop-color="#FFD222"/>
<stop offset="0.02" stop-color="#FFD222"/>
<stop offset="0.15" stop-color="#DDC137"/>
<stop offset="0.56" stop-color="#7B897E"/>
<stop offset="0.9" stop-color="#2379E6"/>
<stop offset="1" stop-color="#1476F9"/>
</linearGradient>
<linearGradient id="paint6_linear_7521_744" x1="57.6755" y1="281.306" x2="73.3049" y2="296.414" gradientUnits="userSpaceOnUse">
<stop stop-color="#F94B38"/>
<stop offset="0.06" stop-color="#F94B38"/>
<stop offset="0.5" stop-color="#7E6982"/>
<stop offset="0.95" stop-color="#1476F9"/>
<stop offset="1" stop-color="#1476F9"/>
</linearGradient>
<linearGradient id="paint7_linear_7521_744" x1="276.157" y1="334.981" x2="192.707" y2="281.39" gradientUnits="userSpaceOnUse">
<stop offset="0.05" stop-color="#CC49C9"/>
<stop offset="0.95" stop-color="#6032FF"/>
</linearGradient>
<linearGradient id="paint8_linear_7521_744" x1="296.806" y1="302.842" x2="213.356" y2="249.251" gradientUnits="userSpaceOnUse">
<stop offset="0.05" stop-color="#CC49C9"/>
<stop offset="0.95" stop-color="#6032FF"/>
</linearGradient>
<linearGradient id="paint9_linear_7521_744" x1="298.716" y1="299.846" x2="215.265" y2="246.254" gradientUnits="userSpaceOnUse">
<stop offset="0.05" stop-color="#CC49C9"/>
<stop offset="0.95" stop-color="#6032FF"/>
</linearGradient>
<linearGradient id="paint10_linear_7521_744" x1="295.224" y1="305.254" x2="211.773" y2="251.663" gradientUnits="userSpaceOnUse">
<stop offset="0.05" stop-color="#CC49C9"/>
<stop offset="0.95" stop-color="#6032FF"/>
</linearGradient>
</defs>
</svg>
