<svg width="576" height="202" viewBox="0 0 576 202" fill="none" xmlns="http://www.w3.org/2000/svg">
<mask id="mask0_7091_895" style="mask-type:alpha" maskUnits="userSpaceOnUse" x="0" y="-35" width="577" height="264">
<mask id="mask1_7091_895" style="mask-type:alpha" maskUnits="userSpaceOnUse" x="0" y="-51" width="577" height="280">
<rect x="-0.217066" y="0.217066" width="576.566" height="279.566" transform="matrix(-1 4.37114e-08 4.37114e-08 1 576.566 -51)" fill="url(#paint0_linear_7091_895)" stroke="#42D3F5" stroke-width="0.434132"/>
</mask>
<g mask="url(#mask1_7091_895)">
<path d="M972.422 156.191L863.083 156.191C859.333 156.191 856.293 159.231 856.293 162.98L856.293 231.738M856.293 231.738L824.816 231.738M856.293 231.738L960.802 231.738M609.505 231.738L721.568 231.738M609.505 231.738L489.888 231.738M609.505 231.738L609.505 267.623M609.505 303.508L609.505 267.623M721.568 231.738L721.568 189.422C721.568 185.672 718.528 182.632 714.778 182.632L645.255 182.632C641.505 182.632 638.465 179.592 638.465 175.842L638.465 156.191M721.568 231.738L779.486 231.738M638.465 98.9004L638.465 156.191M824.816 231.738L779.486 231.738M824.816 231.738L824.816 256.291M923.658 303.508L923.658 287.634C923.658 283.884 920.618 280.844 916.868 280.844L831.606 280.844C827.856 280.844 824.816 277.804 824.816 274.054L824.816 256.291M638.465 156.191L565.301 156.191C561.551 156.191 558.511 159.231 558.511 162.98L558.511 193.47C558.511 197.22 555.471 200.26 551.721 200.26L466.595 200.26M779.486 231.738L779.486 103.307M609.505 267.623L680.78 267.623C684.53 267.623 687.57 270.663 687.57 274.413L687.57 298.472M824.816 256.291L756.057 256.291C752.307 256.291 749.267 259.331 749.267 263.081L749.267 328.691" stroke="#42D3F5" stroke-width="1.41788"/>
<circle cx="2.21302" cy="2.21302" r="1.95187" transform="matrix(-1 4.37114e-08 4.37114e-08 1 499.242 197.51)" fill="#EF62EA" stroke="#42D3F5" stroke-width="0.522299"/>
<path d="M464.242 20.9146L358.479 20.9146C354.852 20.9146 351.911 23.8551 351.911 27.4825L351.911 93.9915M351.911 93.9915L321.464 93.9916M351.911 93.9915L453.002 93.9915M113.195 93.9916L221.592 93.9916M113.195 93.9916L-2.51049 93.9916M113.195 93.9916L113.195 128.703M113.195 163.415L113.195 128.703M221.592 93.9916L221.592 53.0594C221.592 49.4321 218.651 46.4916 215.024 46.4916L147.775 46.4916C144.148 46.4916 141.207 43.5511 141.207 39.9238L141.207 20.9146M221.592 93.9916L277.616 93.9916M141.207 -34.5019L141.207 20.9146M321.464 93.9916L277.616 93.9916M321.464 93.9916L321.464 117.741M417.073 163.415L417.073 148.059C417.073 144.432 414.132 141.491 410.505 141.491L328.031 141.491C324.404 141.491 321.464 138.551 321.464 134.924L321.464 117.741M141.207 20.9146L70.4355 20.9146C66.8082 20.9146 63.8677 23.8552 63.8677 27.4825L63.8677 56.975C63.8677 60.6023 60.9271 63.5428 57.2998 63.5428L-25.0426 63.5428M277.616 93.9916L277.616 -30.2392M113.195 128.703L182.138 128.703C185.765 128.703 188.706 131.644 188.706 135.271L188.706 158.543M321.464 117.741L254.953 117.741C251.326 117.741 248.385 120.682 248.385 124.309L248.385 187.773" stroke="#42D3F5" stroke-width="1.37151"/>
<circle cx="2.14065" cy="2.14065" r="1.88804" transform="matrix(-1 4.37114e-08 4.37114e-08 1 409.477 91.7773)" fill="#A662EF" stroke="#42D3F5" stroke-width="0.505218"/>
<circle cx="2.14065" cy="2.14065" r="1.88804" transform="matrix(-1 4.37114e-08 4.37114e-08 1 6.53906 60.8809)" fill="#EF62EA" stroke="#42D3F5" stroke-width="0.505218"/>
<circle cx="2.14065" cy="2.14065" r="1.88804" transform="matrix(-1 4.37114e-08 4.37114e-08 1 361.844 139.41)" fill="#EF62EA" stroke="#42D3F5" stroke-width="0.505218"/>
<circle cx="2.14065" cy="2.14065" r="1.88804" transform="matrix(-1 4.37114e-08 4.37114e-08 1 373.43 139.41)" fill="#EF62EA" stroke="#42D3F5" stroke-width="0.505218"/>
<circle cx="2.14065" cy="2.14065" r="1.88804" transform="matrix(-1 4.37114e-08 4.37114e-08 1 92.9297 18.5156)" fill="#A662EF" stroke="#42D3F5" stroke-width="0.505218"/>
<circle cx="2.14065" cy="2.14065" r="1.88804" transform="matrix(-1 4.37114e-08 4.37114e-08 1 193.609 91.7773)" fill="#A662EF" stroke="#42D3F5" stroke-width="0.505218"/>
<circle cx="2.14065" cy="2.14065" r="1.88804" transform="matrix(-1 4.37114e-08 4.37114e-08 1 280.195 38.1055)" fill="#EFC762" stroke="#42D3F5" stroke-width="0.505218"/>
</g>
</mask>
<g mask="url(#mask0_7091_895)">
<g filter="url(#filter0_f_7091_895)">
<circle cx="214.114" cy="214.114" r="214.114" transform="matrix(-1 0 0 1 377.227 -38.1191)" fill="white"/>
</g>
</g>
<defs>
<filter id="filter0_f_7091_895" x="-312.104" y="-299.223" width="950.434" height="950.436" filterUnits="userSpaceOnUse" color-interpolation-filters="sRGB">
<feFlood flood-opacity="0" result="BackgroundImageFix"/>
<feBlend mode="normal" in="SourceGraphic" in2="BackgroundImageFix" result="shape"/>
<feGaussianBlur stdDeviation="130.552" result="effect1_foregroundBlur_7091_895"/>
</filter>
<linearGradient id="paint0_linear_7091_895" x1="288.5" y1="0" x2="288.5" y2="280" gradientUnits="userSpaceOnUse">
<stop stop-color="#D9D9D9"/>
<stop offset="1" stop-color="#737373" stop-opacity="0"/>
</linearGradient>
</defs>
</svg>
